PathFileType	4	(X/Y/Z)	/tmp/tmpjnq7zxqp/Me/MarkerData/jogging02_segment_0.trc
DataRate	CameraRate	NumFrames	NumMarkers	Units	OrigDataRate	OrigDataStartFrame	OrigNumFrames
100.093	100.093	8	39	m	100.093	268	1074
Frame#	Time	C7			CLAV			LANK			LASI			LBHD			LELB			LFHD			LFIN			LFRM			LHEE			LKNE			LPSI			LSHO			LTHI			LTIB			LTOE			LUPA			LWRA			LWRB			RANK			RASI			RBAK			RBHD			RELB			RFHD			RFIN			RFRM			RHEE			RKNE			RPSI			RSHO			RTHI			RTIB			RTOE			RUPA			RWRA			RWRB			STRN			T10		
		X1	Y1	Z1	X2	Y2	Z2	X3	Y3	Z3	X4	Y4	Z4	X5	Y5	Z5	X6	Y6	Z6	X7	Y7	Z7	X8	Y8	Z8	X9	Y9	Z9	X10	Y10	Z10	X11	Y11	Z11	X12	Y12	Z12	X13	Y13	Z13	X14	Y14	Z14	X15	Y15	Z15	X16	Y16	Z16	X17	Y17	Z17	X18	Y18	Z18	X19	Y19	Z19	X20	Y20	Z20	X21	Y21	Z21	X22	Y22	Z22	X23	Y23	Z23	X24	Y24	Z24	X25	Y25	Z25	X26	Y26	Z26	X27	Y27	Z27	X28	Y28	Z28	X29	Y29	Z29	X30	Y30	Z30	X31	Y31	Z31	X32	Y32	Z32	X33	Y33	Z33	X34	Y34	Z34	X35	Y35	Z35	X36	Y36	Z36	X37	Y37	Z37	X38	Y38	Z38	X39	Y39	Z39

269	2.6775	-0.107693	1.48441	0.00170755	-0.268456	1.40775	0.00680324	0.198555	0.188193	0.0827066	-0.173713	1.00727	0.149313	-0.177335	1.63399	0.0754183	-0.307898	1.15693	0.250764	-0.299852	1.64799	0.121183	-0.477462	1.3344	0.0531653	-0.404285	1.18297	0.132586	0.274396	0.219893	0.031043	-0.0683455	0.490195	0.124818	-0.055227	1.04291	0.00683462	-0.169892	1.4682	0.172081	-0.112643	0.67658	0.155321	0.107783	0.312824	0.115202	0.12592	0.0671451	-0.00165362	-0.250208	1.32005	0.24895	-0.39344	1.27279	0.0696352	-0.455538	1.23569	0.0777964	-0.379199	0.125449	-0.114068	-0.203688	1.01681	-0.155328	-0.0518146	1.37384	-0.107861	-0.243408	1.62235	-0.0586501	0.0081147	1.26225	-0.296962	-0.350713	1.6309	0.00475889	-0.227944	1.01686	-0.254928	-0.0161292	1.17704	-0.297583	-0.322813	0.0597265	-0.052892	-0.337087	0.536624	-0.134333	-0.0566484	1.0351	-0.0539013	-0.188674	1.47742	-0.16214	-0.259193	0.859486	-0.18375	-0.326057	0.406644	-0.160772	-0.535385	0.160063	-0.053701	-0.0567983	1.32785	-0.276445	-0.142212	1.09097	-0.223551	-0.123482	1.04137	-0.272118	-0.308657	1.25448	0.00552287	-0.0525068	1.26655	0.0129141
270	2.6875	-0.108536	1.48439	0.000454218	-0.269521	1.40848	0.0053369	0.205907	0.195559	0.0841182	-0.176472	1.00821	0.148723	-0.176719	1.63373	0.0729978	-0.308282	1.1572	0.249686	-0.299094	1.64868	0.118945	-0.474118	1.33705	0.0508655	-0.403364	1.18448	0.130672	0.279368	0.231778	0.0329431	-0.0693927	0.489835	0.12489	-0.0573375	1.04403	0.00702412	-0.171484	1.46887	0.170511	-0.115117	0.676484	0.15513	0.1119	0.317091	0.116351	0.139639	0.069781	-0.00114784	-0.250875	1.32012	0.247834	-0.39133	1.27426	0.0680277	-0.453925	1.23791	0.0757218	-0.387351	0.125525	-0.112526	-0.205437	1.016	-0.155299	-0.0533805	1.3737	-0.108003	-0.243139	1.62209	-0.0609286	0.00794468	1.26116	-0.297014	-0.350243	1.63154	0.00268945	-0.231523	1.01844	-0.255797	-0.0172907	1.17615	-0.297706	-0.333058	0.0577368	-0.0507361	-0.334249	0.533142	-0.132092	-0.0589745	1.0362	-0.0538349	-0.189221	1.47676	-0.163654	-0.258843	0.856143	-0.183871	-0.326634	0.405277	-0.159179	-0.542291	0.165208	-0.0522975	-0.0564928	1.32756	-0.276618	-0.145028	1.0916	-0.224171	-0.126669	1.04169	-0.272522	-0.310767	1.25576	0.00453298	-0.0535902	1.26811	0.0130178
271	2.69749	-0.109229	1.48334	-0.000940806	-0.270468	1.40823	0.00374756	0.212703	0.202932	0.0856772	-0.179076	1.00804	0.148328	-0.176144	1.63265	0.0705489	-0.307737	1.15599	0.248986	-0.298347	1.64855	0.116702	-0.470894	1.33734	0.0488296	-0.401962	1.18402	0.129344	0.283419	0.243784	0.0349859	-0.0720226	0.487753	0.125209	-0.0589731	1.04407	0.00743124	-0.172657	1.46833	0.169115	-0.118719	0.674898	0.154941	0.114981	0.320968	0.117145	0.152089	0.0725001	-0.00035608	-0.251004	1.31885	0.24707	-0.389184	1.27359	0.0667139	-0.452152	1.23791	0.0742294	-0.391348	0.124209	-0.109928	-0.206763	1.01406	-0.15545	-0.0548997	1.37229	-0.108376	-0.2429	1.62104	-0.0631782	0.00689862	1.25794	-0.297577	-0.349814	1.63137	0.00062319	-0.236636	1.0191	-0.256132	-0.0197315	1.17334	-0.298083	-0.338397	0.0554033	-0.0480193	-0.333593	0.529899	-0.129798	-0.0608813	1.03654	-0.0538831	-0.189502	1.47496	-0.165552	-0.258594	0.851726	-0.18382	-0.327456	0.403609	-0.157466	-0.54536	0.167315	-0.0509284	-0.056958	1.32502	-0.277363	-0.149059	1.09096	-0.224635	-0.131409	1.04067	-0.272808	-0.312749	1.25606	0.00339134	-0.0544924	1.26861	0.0127778
272	2.70748	-0.109808	1.4812	-0.00253889	-0.271345	1.40697	0.00194155	0.2186	0.210137	0.0873796	-0.181438	1.00669	0.148079	-0.17567	1.63074	0.0680841	-0.30631	1.15338	0.248664	-0.297606	1.64757	0.114463	-0.468049	1.33516	0.047086	-0.400088	1.18161	0.128598	0.286205	0.255488	0.0370481	-0.0762191	0.484324	0.125819	-0.0602321	1.04279	0.00794366	-0.173415	1.46656	0.167864	-0.123236	0.672008	0.154814	0.117073	0.324454	0.118208	0.162955	0.0746996	0.000840195	-0.250655	1.31636	0.246561	-0.387064	1.27073	0.065659	-0.450252	1.2356	0.0732914	-0.391248	0.120795	-0.106826	-0.207759	1.01096	-0.155757	-0.0562699	1.36963	-0.108949	-0.242744	1.61919	-0.0654088	0.00492127	1.25269	-0.298608	-0.349465	1.63038	-0.00142654	-0.243201	1.01888	-0.255955	-0.0234022	1.16868	-0.298687	-0.338795	0.0521899	-0.0450836	-0.334646	0.527513	-0.127889	-0.0626606	1.03579	-0.0539087	-0.189543	1.47212	-0.167639	-0.258624	0.846465	-0.183722	-0.328167	0.401173	-0.155706	-0.544742	0.166254	-0.049332	-0.0582825	1.32025	-0.278662	-0.154304	1.08909	-0.224984	-0.137604	1.03832	-0.272971	-0.314595	1.25526	0.00216475	-0.0557749	1.26771	0.0121332
273	2.71747	-0.110277	1.47796	-0.00433215	-0.272144	1.40467	-8.59403e-05	0.223434	0.216996	0.0889217	-0.183502	1.00416	0.147856	-0.175168	1.62799	0.06566	-0.303999	1.14949	0.248709	-0.296868	1.64571	0.112218	-0.465743	1.33036	0.0455916	-0.397737	1.17724	0.128388	0.287333	0.266851	0.0390682	-0.0818603	0.479821	0.126886	-0.06121	1.03994	0.00850734	-0.173878	1.46364	0.166737	-0.12851	0.668036	0.154823	0.117955	0.327339	0.119846	0.172298	0.0758636	0.00237112	-0.249784	1.31281	0.246156	-0.385025	1.26577	0.0648114	-0.448237	1.23091	0.0728507	-0.387354	0.116071	-0.104407	-0.208342	1.00674	-0.156247	-0.0573899	1.36573	-0.109704	-0.24264	1.61645	-0.0676551	0.00198952	1.24557	-0.30005	-0.349165	1.62847	-0.0034759	-0.251127	1.01779	-0.255487	-0.0282157	1.16232	-0.299511	-0.334254	0.0484674	-0.0424329	-0.336467	0.525382	-0.126095	-0.0643168	1.03358	-0.0537526	-0.189445	1.46833	-0.169731	-0.259024	0.840741	-0.183778	-0.328345	0.397694	-0.154036	-0.540575	0.161848	-0.0473249	-0.0604486	1.31347	-0.280378	-0.160697	1.0861	-0.225199	-0.14519	1.03476	-0.272963	-0.31632	1.25328	0.000825987	-0.0569634	1.26548	0.011197
274	2.72746	-0.110596	1.47361	-0.00625989	-0.272787	1.40133	-0.00211198	0.227314	0.22354	0.0902377	-0.185332	1.0005	0.147698	-0.174652	1.62432	0.0632086	-0.300784	1.14447	0.249096	-0.296156	1.64293	0.109934	-0.464135	1.32289	0.0443566	-0.394854	1.17088	0.128624	0.286402	0.277577	0.0411489	-0.0885096	0.474316	0.128492	-0.0620167	1.03548	0.00913431	-0.174127	1.45973	0.165642	-0.134404	0.663131	0.155077	0.11746	0.329464	0.121213	0.180831	0.0756942	0.00408768	-0.248364	1.30834	0.245761	-0.383108	1.25881	0.0641811	-0.446071	1.22382	0.0728542	-0.379712	0.110848	-0.102765	-0.208207	1.00172	-0.156991	-0.0581997	1.36067	-0.110698	-0.24257	1.61267	-0.0699258	-0.00187773	1.23668	-0.301798	-0.34886	1.62555	-0.00552705	-0.26026	1.01595	-0.254805	-0.0340902	1.15437	-0.300442	-0.32454	0.046048	-0.0403451	-0.338434	0.522446	-0.124307	-0.0656184	1.02969	-0.0533878	-0.189284	1.46366	-0.171712	-0.259801	0.83508	-0.184074	-0.327645	0.393152	-0.152583	-0.532969	0.153844	-0.0440313	-0.0634397	1.30492	-0.282399	-0.168082	1.08208	-0.225233	-0.154	1.03011	-0.272743	-0.317902	1.25002	-0.000640162	-0.0577368	1.26209	0.0100861
275	2.73745	-0.110768	1.4682	-0.00826889	-0.273238	1.39701	-0.00401658	0.229925	0.229554	0.091508	-0.186964	0.995839	0.147598	-0.17418	1.61967	0.0606477	-0.296683	1.13846	0.249778	-0.295435	1.63915	0.107588	-0.463239	1.31275	0.0434011	-0.391342	1.16257	0.129228	0.28358	0.287209	0.0429792	-0.0958061	0.467922	0.130468	-0.0627302	1.02949	0.00982959	-0.174213	1.455	0.164479	-0.140731	0.657414	0.155675	0.115709	0.330826	0.122663	0.189475	0.0746749	0.00573561	-0.246439	1.30311	0.245388	-0.381307	1.24986	0.0637795	-0.443777	1.21425	0.0732605	-0.368716	0.10577	-0.100962	-0.208099	0.995888	-0.157899	-0.0586593	1.35447	-0.11194	-0.242483	1.6078	-0.0722274	-0.00667226	1.22618	-0.303778	-0.348523	1.62151	-0.00759973	-0.270442	1.01349	-0.253881	-0.0409506	1.145	-0.30147	-0.310313	0.0461859	-0.0385176	-0.339846	0.518167	-0.123089	-0.0664257	1.02395	-0.0528363	-0.189137	1.45809	-0.17355	-0.260815	0.829941	-0.18445	-0.325951	0.387642	-0.151362	-0.522915	0.141743	-0.0390922	-0.0671234	1.29486	-0.284486	-0.176251	1.07712	-0.225121	-0.163931	1.0245	-0.272273	-0.319258	1.24541	-0.0021538	-0.058285	1.25749	0.00872423
276	2.74744	-0.110811	1.46183	-0.0103066	-0.273501	1.39176	-0.00572954	0.231063	0.234803	0.092867	-0.188447	0.990221	0.147523	-0.173676	1.61411	0.0580977	-0.291779	1.13155	0.250732	-0.294685	1.63442	0.105199	-0.462938	1.3	0.0427305	-0.387241	1.15245	0.130262	0.279529	0.295202	0.0441458	-0.103818	0.460763	0.132686	-0.0633279	1.02214	0.0106137	-0.174229	1.44954	0.163131	-0.147383	0.650926	0.156702	0.112829	0.331367	0.124329	0.198179	0.0746647	0.00751824	-0.24415	1.29721	0.245252	-0.379619	1.239	0.0636893	-0.441364	1.20229	0.0740672	-0.355819	0.100519	-0.0986668	-0.207937	0.989513	-0.158907	-0.0588486	1.34716	-0.113451	-0.242357	1.60187	-0.0745167	-0.0123519	1.21427	-0.305937	-0.348148	1.61641	-0.00968661	-0.281519	1.01052	-0.252486	-0.048756	1.13439	-0.302588	-0.294593	0.0471331	-0.0366042	-0.340251	0.512516	-0.122871	-0.0667304	1.01649	-0.0520959	-0.189037	1.45156	-0.175289	-0.261714	0.825221	-0.184349	-0.323267	0.38119	-0.150145	-0.512376	0.126899	-0.0340301	-0.0713927	1.28346	-0.286474	-0.185089	1.07139	-0.224881	-0.174865	1.01801	-0.271497	-0.320284	1.2395	-0.00357708	-0.0587048	1.25156	0.00705324
